<svg width="51" height="55" viewBox="0 0 51 55" fill="none" xmlns="http://www.w3.org/2000/svg">
<path d="M34.008 39.456C34.008 39.8187 32.9307 40 30.776 40C28.6213 40 27.544 39.8187 27.544 39.456V32.096H23.064V39.456C23.064 39.8187 21.9867 40 19.832 40C17.6773 40 16.6 39.8187 16.6 39.456V18.24C16.6 17.792 17.6773 17.568 19.832 17.568C21.9867 17.568 23.064 17.792 23.064 18.24V25.76H27.544V18.304C27.544 18.0053 28.0773 17.792 29.144 17.664C29.6987 17.6213 30.2427 17.6 30.776 17.6L32.408 17.664C33.4747 17.792 34.008 18.0053 34.008 18.304V39.456Z" fill="#E5009D"/>
<path d="M25.5 2L47.5836 14.75V40.25L25.5 53L3.41635 40.25V14.75L25.5 2Z" stroke="#E6009E" stroke-width="3"/>
</svg>
